# xmcd CD database file
#
# Track frame offsets:
#	150
#	10058
#	51416
#	59023
#	72148
#	113924
#	120768
#	135504
#	141663
#	168453
#	180259
#	207105
#	228299
#	238568
#	260774
#
# Disc length: 3835 seconds
#
# Revision: 0
# Processed by: cddbd v1.5.1PL0 Copyright (c) Steve Scherf et al.
# Submitted via: CDex 1.51
#
DISCID=d20ef90f
DTITLE=織田優成 村上たつや - 絶対服従命令 ピアニストを堕とせ！
DYEAR=1900
DGENRE=未分類 (一般)
TTITLE0=01.『ピアニストを堕とせ！』
TTITLE1=02.『ピアニストを堕とせ！』
TTITLE2=03.『ピアニストを堕とせ！』
TTITLE3=04.『ピアニストを堕とせ！』
TTITLE4=05.『ピアニストを堕とせ！』
TTITLE5=06.『ピアニストを堕とせ！』
TTITLE6=07.『ピアニストを堕とせ！』
TTITLE7=08.『ピアニストを堕とせ！』
TTITLE8=09.『ピアニストを堕とせ！』
TTITLE9=10.『ピアニストを堕とせ！』
TTITLE10=11.『ピアニストを堕とせ！』
TTITLE11=12.『ピアニストを堕とせ！』
TTITLE12=13.『ピアニストを堕とせ！』
TTITLE13=14.『ピアニストを堕とせ！』
TTITLE14=15.『ピアニストを堕とせ！』
EXTD=
EXTT0=
EXTT1=
EXTT2=
EXTT3=
EXTT4=
EXTT5=
EXTT6=
EXTT7=
EXTT8=
EXTT9=
EXTT10=
EXTT11=
EXTT12=
EXTT13=
EXTT14=
PLAYORDER=
